<?xml version="1.0" standalone="no"?>
<!DOCTYPE svg PUBLIC "-//W3C//DTD SVG 20010904//EN"
 "http://www.w3.org/TR/2001/REC-SVG-20010904/DTD/svg10.dtd">
<svg version="1.0" xmlns="http://www.w3.org/2000/svg"
 width="477.000000pt" height="597.000000pt" viewBox="0 0 477.000000 597.000000"
 preserveAspectRatio="xMidYMid meet">

<g transform="translate(0.000000,597.000000) scale(0.100000,-0.100000)"
fill="#000000" stroke="none">
<path d="M2270 4870 c0 -727 3 -1100 10 -1100 6 0 10 -80 10 -220 0 -189 -2
-220 -15 -220 -8 0 -15 -4 -15 -9 0 -4 -16 -11 -35 -14 -19 -3 -41 -12 -50
-19 -59 -51 -95 -91 -101 -113 -3 -14 -10 -25 -15 -25 -4 0 -11 -16 -15 -35
-3 -20 -12 -35 -20 -35 -8 0 -14 -4 -14 -9 0 -4 -19 -11 -41 -14 -23 -3 -45
-10 -48 -15 -3 -5 -21 -13 -38 -17 -18 -3 -33 -10 -33 -14 0 -4 -17 -13 -37
-20 -38 -14 -53 -24 -81 -53 -9 -10 -20 -18 -25 -18 -13 0 -167 -157 -167
-170 0 -6 -7 -13 -15 -16 -8 -4 -15 -12 -15 -19 0 -8 -6 -20 -13 -27 -7 -7
-16 -21 -20 -30 -9 -24 -28 -23 -34 2 -3 11 -9 20 -14 20 -4 0 -11 17 -15 38
-4 20 -10 39 -14 42 -4 3 -11 40 -17 82 -6 45 -18 84 -27 93 -9 9 -16 27 -16
41 0 13 -4 24 -9 24 -5 0 -12 11 -15 25 -10 38 -52 35 -61 -5 -4 -17 -10 -30
-15 -30 -5 0 -11 -14 -15 -30 -4 -17 -10 -30 -15 -30 -4 0 -11 -16 -14 -35 -4
-19 -11 -35 -15 -35 -5 0 -14 -20 -21 -45 -7 -25 -16 -45 -21 -45 -4 0 -10
-13 -14 -29 -3 -16 -13 -32 -21 -35 -8 -3 -14 -11 -14 -17 0 -6 -11 -22 -25
-35 -14 -13 -25 -27 -25 -33 0 -15 -160 -171 -176 -171 -8 0 -14 -5 -14 -10 0
-6 -8 -14 -17 -17 -10 -4 -23 -12 -30 -17 -7 -6 -19 -17 -28 -24 -8 -7 -38
-18 -65 -25 -28 -6 -50 -15 -50 -19 0 -4 -31 -10 -70 -14 -38 -3 -70 -11 -70
-15 0 -5 -19 -9 -42 -10 -24 0 -36 -3 -28 -6 8 -3 18 -11 22 -16 10 -15 231
-14 236 1 2 7 16 12 32 12 16 0 35 7 44 15 17 17 36 20 36 5 0 -5 -7 -10 -15
-10 -7 0 -18 -6 -22 -14 -4 -7 -15 -16 -23 -19 -8 -4 8 -4 35 0 28 3 52 9 55
14 3 4 18 11 33 14 15 4 27 11 27 15 0 4 11 11 25 14 14 4 34 15 45 26 11 11
26 20 34 20 8 0 16 7 20 15 3 8 11 15 17 15 7 0 -2 -13 -19 -28 -18 -16 -32
-32 -32 -35 0 -14 -76 -97 -89 -97 -5 0 -23 -14 -39 -30 -17 -17 -35 -30 -42
-30 -6 0 -13 -6 -16 -13 -3 -8 -20 -20 -39 -27 -19 -8 -35 -17 -35 -21 0 -4
-13 -10 -30 -14 -16 -4 -30 -11 -30 -15 0 -5 -17 -12 -37 -16 -21 -4 -41 -11
-44 -16 -3 -5 -34 -12 -68 -15 -33 -3 -61 -10 -61 -14 0 -5 -39 -9 -87 -10
-49 0 -81 -3 -73 -6 8 -3 18 -10 21 -15 3 -5 29 -11 57 -15 29 -3 52 -10 52
-14 0 -13 88 -11 92 1 2 7 52 12 128 14 83 2 125 7 128 14 2 7 21 15 42 18 21
4 41 13 44 20 3 8 12 14 21 14 8 0 15 5 15 10 0 6 7 10 15 10 8 0 23 9 32 20
10 11 21 20 25 20 15 0 175 165 182 188 4 12 12 22 17 22 5 0 9 6 9 14 0 37
55 29 64 -9 4 -14 11 -25 16 -25 6 0 10 -5 10 -12 0 -6 26 -36 58 -65 31 -29
60 -57 65 -61 22 -21 47 -57 47 -69 0 -7 5 -13 10 -13 6 0 14 -8 17 -17 4 -10
17 -28 30 -40 29 -28 29 -33 -2 -33 -14 0 -25 4 -25 9 0 5 -14 11 -30 15 -17
3 -36 10 -43 16 -45 39 -61 50 -68 50 -5 0 -29 20 -53 45 -25 25 -50 45 -55
45 -5 0 -23 14 -39 30 -31 31 -61 39 -63 18 0 -7 -1 -120 -2 -251 -1 -160 -6
-240 -13 -245 -6 -4 -14 -31 -17 -61 -4 -30 -10 -57 -15 -60 -5 -3 -12 -23
-16 -43 -4 -21 -11 -38 -16 -38 -5 0 -12 -11 -16 -25 -3 -14 -10 -25 -14 -25
-5 0 -11 -14 -15 -30 -4 -17 -10 -30 -15 -30 -5 0 -12 -10 -16 -22 -8 -27
-151 -168 -169 -168 -7 0 -15 -7 -19 -15 -3 -8 -12 -15 -21 -15 -8 0 -15 -4
-15 -10 0 -5 16 -10 35 -10 19 0 35 4 35 9 0 5 13 12 30 16 16 4 30 11 30 16
0 5 7 9 15 9 8 0 23 9 32 20 10 11 21 20 25 20 9 0 78 68 78 76 0 10 45 54 55
54 6 0 4 -4 -2 -8 -7 -4 -16 -23 -19 -41 -7 -32 -6 -33 15 -22 11 7 21 18 21
26 0 8 4 15 10 15 5 0 12 11 16 24 3 14 12 27 19 30 7 2 16 18 20 35 4 17 10
31 15 31 5 0 12 20 16 45 3 25 10 45 15 45 4 0 11 21 15 47 4 27 11 51 17 54
5 4 12 69 15 145 3 93 9 143 18 151 13 14 74 18 74 6 0 -20 55 -31 132 -26 65
5 83 3 92 -9 6 -8 22 -19 36 -23 14 -4 35 -18 47 -31 12 -13 27 -24 33 -24 5
0 10 -7 10 -15 0 -8 -9 -15 -20 -15 -11 0 -20 4 -20 9 0 4 -28 11 -62 14 -34
3 -64 10 -66 16 -2 6 -21 14 -43 17 -21 4 -39 10 -39 14 0 4 -12 11 -26 14
-15 4 -33 14 -41 22 -10 10 -30 14 -57 12 -39 -3 -41 -5 -39 -32 1 -16 6 -32
11 -35 5 -3 12 -23 16 -43 4 -21 11 -38 16 -38 4 0 11 -18 15 -40 4 -22 10
-40 14 -40 11 0 31 -127 31 -194 0 -31 5 -56 10 -56 6 0 10 -7 10 -15 0 -8 -4
-15 -10 -15 -5 0 -10 -23 -10 -51 0 -63 -20 -189 -31 -189 -4 0 -10 -13 -14
-30 -4 -16 -11 -30 -16 -30 -5 0 -9 -7 -9 -15 0 -9 -7 -18 -15 -21 -8 -4 -15
-11 -15 -17 0 -6 -20 -30 -45 -54 -25 -23 -45 -48 -45 -54 0 -12 43 -1 48 12
2 5 8 9 14 9 14 0 128 114 128 129 0 6 4 11 10 11 5 0 12 11 16 25 3 14 10 25
14 25 5 0 11 8 13 18 4 16 5 16 6 0 1 -25 31 -23 31 2 0 11 4 20 9 20 5 0 12
27 16 60 4 33 11 60 16 60 5 0 9 43 9 95 0 52 -4 95 -9 95 -4 0 -11 27 -15 60
-4 33 -11 60 -16 60 -15 0 -12 70 3 84 7 8 24 17 37 21 14 4 27 11 30 15 3 4
47 10 97 13 72 4 96 3 107 -8 7 -8 37 -17 65 -21 28 -4 51 -10 51 -14 0 -5 14
-11 31 -15 17 -4 33 -13 36 -21 3 -8 13 -14 23 -14 10 0 25 -6 32 -14 8 -7 29
-17 46 -21 18 -3 32 -11 32 -15 0 -5 17 -12 37 -16 21 -4 44 -13 51 -21 7 -7
24 -13 37 -13 13 0 25 -6 28 -12 5 -17 175 -18 185 -2 4 6 22 15 40 19 17 3
32 10 32 15 0 4 18 10 40 14 22 3 40 10 40 15 0 5 16 12 35 15 19 4 35 11 35
16 0 4 14 11 30 15 17 4 30 10 30 15 0 5 14 11 30 15 17 4 37 14 46 22 9 9 39
18 67 21 28 3 57 11 65 18 8 9 35 14 68 14 30 0 54 5 54 10 0 6 11 10 25 10
29 0 34 -16 8 -23 -14 -4 -12 -5 5 -6 20 -1 22 -4 16 -43 -4 -24 -12 -46 -18
-50 -15 -10 -15 -396 0 -406 6 -4 15 -22 19 -40 3 -17 10 -32 15 -32 5 0 11
-14 15 -30 4 -17 11 -30 16 -30 5 0 9 -6 9 -14 0 -20 117 -135 145 -142 14 -3
25 -10 25 -15 0 -5 5 -9 10 -9 18 0 10 21 -20 52 -16 16 -30 35 -30 43 0 7 -7
15 -15 19 -8 3 -15 12 -15 20 0 7 -7 16 -15 20 -8 3 -15 12 -15 20 0 8 -5 16
-10 18 -21 7 -34 232 -22 366 7 69 16 128 21 131 5 4 12 25 16 48 3 23 13 44
21 47 8 3 14 17 14 31 0 14 5 25 10 25 16 0 12 57 -5 64 -11 4 -13 14 -8 38 7
37 24 58 47 58 14 0 16 -16 16 -105 0 -58 4 -105 9 -105 5 0 13 -25 16 -55 4
-30 10 -55 14 -55 4 0 13 -27 19 -60 7 -33 17 -60 22 -60 6 0 10 -9 10 -19 0
-11 7 -26 15 -34 7 -8 17 -26 21 -41 3 -14 10 -26 15 -26 5 0 13 -8 16 -17 4
-10 18 -30 32 -44 14 -15 33 -36 41 -48 8 -11 19 -21 24 -21 5 0 21 -13 35
-29 14 -15 37 -32 51 -36 14 -4 28 -12 31 -17 4 -6 27 -13 53 -15 39 -5 45 -3
40 10 -3 8 -16 18 -30 21 -13 4 -24 11 -24 16 0 6 -5 10 -11 10 -6 0 -29 18
-51 40 -22 22 -44 40 -48 40 -5 0 -13 14 -19 30 -5 17 -15 30 -20 30 -6 0 -13
11 -17 25 -3 14 -10 25 -14 25 -5 0 -11 13 -15 30 -4 16 -10 30 -15 30 -4 0
-11 17 -15 37 -4 21 -11 40 -15 43 -5 3 -12 37 -16 75 -4 39 -12 73 -18 77 -7
4 -10 76 -11 204 0 149 -3 198 -12 201 -7 3 -13 17 -13 31 -1 86 -29 92 -98
22 -27 -28 -54 -50 -59 -50 -6 0 -27 -16 -47 -35 -41 -38 -56 -43 -56 -20 0 8
5 15 10 15 6 0 10 6 10 13 0 7 15 27 34 43 18 17 37 40 40 52 4 12 12 22 17
22 5 0 13 8 16 18 4 9 17 27 30 39 13 12 23 26 23 31 0 19 39 54 52 46 21 -13
58 -48 58 -57 0 -11 95 -107 106 -107 5 0 20 -13 34 -30 14 -16 30 -30 37 -30
7 0 21 -9 30 -20 10 -11 23 -20 30 -20 7 0 13 -4 13 -9 0 -5 14 -12 30 -16 17
-4 30 -10 30 -15 0 -4 12 -11 27 -15 15 -3 30 -11 34 -16 3 -5 23 -12 45 -16
21 -3 42 -11 46 -17 5 -7 53 -11 136 -11 108 1 132 3 146 18 10 9 24 17 32 17
8 0 14 4 14 8 0 5 -55 12 -122 15 -67 3 -124 10 -127 15 -3 5 -23 12 -43 16
-21 4 -38 11 -38 15 0 5 -18 11 -40 15 -22 3 -40 10 -40 14 0 5 -16 14 -35 22
-19 8 -35 17 -35 22 0 4 -7 8 -15 8 -9 0 -18 7 -21 15 -3 8 -15 17 -26 21 -11
3 -38 25 -59 47 -92 98 -111 117 -119 117 -5 0 -12 10 -15 22 -4 11 -17 31
-30 42 -12 12 -25 31 -29 44 -4 13 -21 37 -37 55 -51 56 -57 65 -64 86 -4 15
-15 21 -36 21 -24 0 -29 -4 -29 -25 0 -14 -4 -25 -9 -25 -4 0 -12 -31 -15 -70
-4 -38 -11 -70 -15 -70 -5 0 -12 -20 -15 -45 -10 -66 -32 -58 -40 15 -4 33
-11 60 -16 60 -4 0 -12 29 -15 65 -4 36 -11 65 -16 65 -19 0 -7 21 35 63 24
25 47 54 51 66 6 21 25 30 25 11 0 -5 -4 -10 -10 -10 -5 0 -10 -9 -10 -20 0
-26 25 -26 47 0 21 24 43 26 43 5 0 -8 5 -15 10 -15 6 0 10 -7 10 -15 0 -7 6
-18 13 -22 7 -4 19 -23 27 -42 8 -19 25 -47 39 -62 14 -15 43 -46 63 -68 21
-23 42 -41 46 -41 5 0 25 -15 45 -32 54 -49 59 -53 95 -68 17 -8 32 -18 32
-22 0 -4 17 -10 38 -14 20 -4 40 -11 43 -16 3 -5 29 -11 57 -15 29 -3 52 -10
52 -14 0 -5 27 -9 60 -9 33 0 60 4 60 10 0 6 13 10 29 10 34 0 61 9 61 20 0 4
-36 11 -80 15 -44 4 -80 11 -80 16 0 5 -9 9 -20 9 -29 0 -113 23 -127 35 -7 5
-18 15 -26 21 -7 6 -24 15 -37 19 -13 4 -35 21 -49 36 -14 16 -29 29 -33 29
-11 0 -118 105 -118 115 0 4 -11 18 -24 30 -13 12 -27 32 -31 43 -3 12 -11 22
-16 22 -5 0 -9 7 -9 15 0 9 -6 18 -14 21 -8 3 -18 19 -21 35 -4 16 -10 29 -14
29 -4 0 -13 23 -20 50 -7 28 -17 50 -21 50 -5 0 -11 14 -15 30 -4 17 -10 30
-15 30 -5 0 -11 13 -15 29 -3 16 -13 32 -21 35 -8 3 -14 13 -14 21 0 12 -8 15
-27 13 -23 -2 -29 -9 -31 -33 -2 -16 -7 -32 -11 -35 -5 -3 -13 -45 -19 -94 -7
-49 -16 -92 -21 -95 -5 -4 -13 -20 -17 -36 -4 -16 -13 -36 -21 -43 -7 -7 -13
-20 -13 -27 0 -16 -35 -29 -50 -20 -5 3 -10 13 -10 21 0 8 -4 14 -10 14 -5 0
-12 11 -16 24 -3 13 -16 29 -30 36 -13 8 -24 17 -24 20 0 13 -131 140 -145
140 -7 0 -15 7 -19 15 -3 8 -12 15 -20 15 -7 0 -16 6 -19 14 -3 8 -19 17 -36
21 -17 4 -31 11 -31 16 0 5 -18 12 -40 15 -22 4 -40 10 -40 15 0 4 -16 11 -35
15 -19 3 -35 10 -35 15 0 5 -7 9 -15 9 -8 0 -15 7 -15 15 0 9 -7 18 -15 21
-17 7 -21 54 -5 54 6 0 10 9 10 20 0 14 -7 20 -24 20 -13 0 -26 -4 -28 -9 -1
-5 -18 -12 -36 -16 l-34 -7 7 46 c7 42 5 46 -13 46 -11 0 -22 -4 -24 -8 -1 -5
-15 -12 -30 -16 l-28 -6 0 1365 c0 1207 -2 1365 -15 1365 -13 0 -15 -129 -15
-1100z m20 -1610 c0 -5 -4 -10 -10 -10 -5 0 -10 5 -10 10 0 6 5 10 10 10 6 0
10 -4 10 -10z m-123 -516 c8 -8 25 -14 39 -14 13 0 24 -5 24 -10 0 -6 8 -14
18 -17 9 -4 42 -32 73 -64 46 -47 61 -57 80 -52 13 4 27 11 30 16 9 13 199 13
207 0 4 -6 22 -14 40 -18 17 -3 32 -10 32 -15 0 -5 10 -12 23 -16 26 -8 77
-62 77 -81 0 -7 4 -13 9 -13 5 0 12 -13 16 -30 4 -16 11 -30 16 -30 5 0 9 -38
9 -85 0 -47 -4 -85 -9 -85 -5 0 -12 -13 -16 -30 -4 -16 -11 -30 -16 -30 -5 0
-9 -6 -9 -12 0 -7 -12 -24 -25 -37 -14 -13 -25 -27 -25 -31 0 -4 -11 -11 -25
-14 -14 -4 -25 -10 -25 -15 0 -5 -15 -13 -32 -16 -18 -4 -36 -12 -40 -18 -8
-14 -198 -13 -207 0 -3 6 -19 13 -35 17 -17 4 -35 15 -42 24 -11 15 -16 13
-49 -21 -20 -20 -42 -37 -50 -37 -8 0 -15 -4 -15 -9 0 -5 -12 -12 -26 -15 -15
-4 -32 -13 -40 -20 -20 -20 -149 -29 -227 -16 -37 7 -67 16 -67 20 0 5 -13 11
-30 15 -16 4 -30 10 -30 15 0 4 -11 11 -25 14 -14 4 -25 10 -25 15 0 5 -18 27
-40 49 -22 22 -40 45 -40 51 0 6 -4 11 -9 11 -5 0 -12 12 -16 27 -3 15 -11 31
-16 34 -6 3 -13 31 -16 62 -3 32 -10 57 -14 57 -5 0 -9 16 -9 35 0 19 4 35 9
35 4 0 11 27 15 60 4 33 11 60 15 60 5 0 12 11 15 25 4 14 11 25 16 25 6 0 10
6 10 14 0 16 104 126 119 126 7 0 14 6 17 14 3 7 23 16 45 20 21 3 39 10 39
16 0 24 232 19 257 -6z m-837 -31 c11 -10 20 -21 20 -25 0 -11 33 -48 42 -48
5 0 17 -9 28 -20 20 -20 28 -70 11 -70 -6 0 -13 -21 -17 -47 -4 -27 -11 -50
-15 -53 -5 -3 -10 -53 -11 -110 -2 -79 -5 -97 -12 -77 -6 15 -13 27 -17 27 -4
0 -10 32 -14 70 -4 39 -10 70 -15 70 -4 0 -10 18 -13 40 -3 22 -12 47 -21 55
-9 9 -16 27 -16 40 0 13 -6 25 -12 28 -21 6 -16 89 7 114 25 27 30 27 55 6z
m1970 -373 c0 -5 -4 -10 -10 -10 -5 0 -10 5 -10 10 0 6 5 10 10 10 6 0 10 -4
10 -10z m-25 -39 c-3 -6 -11 -11 -16 -11 -5 0 -4 6 3 14 14 16 24 13 13 -3z
m-2505 -271 c0 -5 -4 -10 -10 -10 -5 0 -10 5 -10 10 0 6 5 10 10 10 6 0 10 -4
10 -10z m-60 -30 c0 -5 -7 -10 -15 -10 -8 0 -15 5 -15 10 0 6 7 10 15 10 8 0
15 -4 15 -10z m2485 -26 c-29 -25 -46 -27 -52 -7 -2 6 12 14 32 17 19 4 35 12
35 18 0 6 3 8 7 4 4 -4 -6 -18 -22 -32z m-67 -31 c-10 -2 -18 -8 -18 -13 0 -5
-13 -11 -30 -15 -16 -4 -30 -11 -30 -16 0 -5 -11 -9 -25 -9 -35 0 -31 19 5 27
17 3 30 9 30 14 0 7 35 16 70 16 9 1 8 -1 -2 -4z m-1651 -689 c-3 -3 -12 -4
-19 -1 -8 3 -5 6 6 6 11 1 17 -2 13 -5z"/>
<path d="M2398 2423 c-16 -2 -28 -7 -28 -11 0 -4 -12 -20 -26 -37 -21 -24 -25
-37 -21 -67 3 -21 12 -45 21 -53 8 -9 20 -23 25 -32 6 -12 24 -16 71 -16 34 0
65 4 68 10 4 5 15 12 25 16 9 3 17 13 17 22 0 8 5 15 10 15 6 0 10 20 10 45 0
25 -4 45 -10 45 -5 0 -10 7 -10 15 0 9 -8 19 -17 22 -10 4 -20 10 -23 14 -7 9
-79 17 -112 12z"/>
<path d="M2063 2365 c-32 -31 -31 -93 2 -129 56 -61 165 -14 165 72 0 31 -5
41 -25 52 -14 7 -25 17 -25 22 0 4 -21 8 -47 7 -35 -1 -54 -7 -70 -24z"/>
<path d="M1441 1144 c0 -11 3 -14 6 -6 3 7 2 16 -1 19 -3 4 -6 -2 -5 -13z"/>
</g>
</svg>
