<?xml version="1.0" standalone="no"?>
<!DOCTYPE svg PUBLIC "-//W3C//DTD SVG 20010904//EN"
 "http://www.w3.org/TR/2001/REC-SVG-20010904/DTD/svg10.dtd">
<svg version="1.0" xmlns="http://www.w3.org/2000/svg"
 width="253.000000pt" height="233.000000pt" viewBox="0 0 253.000000 233.000000"
 preserveAspectRatio="xMidYMid meet">

<g transform="translate(0.000000,233.000000) scale(0.100000,-0.100000)"
fill="#000000" stroke="none">
<path d="M822 2270 c-135 -19 -281 -83 -389 -170 -266 -215 -360 -595 -227
-912 68 -162 209 -313 366 -391 119 -60 186 -77 325 -84 94 -5 127 -2 208 16
101 24 198 67 279 125 l50 35 75 -74 c69 -68 75 -77 63 -95 -32 -52 -27 -59
276 -363 158 -159 300 -295 315 -303 15 -8 36 -12 46 -9 33 10 171 161 171
186 0 17 -79 103 -302 326 -266 266 -306 303 -333 303 -17 0 -36 -5 -43 -12
-10 -10 -28 4 -87 62 -41 41 -75 78 -75 83 0 5 14 26 30 47 41 52 104 190 124
271 24 97 22 273 -3 373 -100 385 -479 640 -869 586z m316 -163 c201 -71 352
-226 414 -427 30 -97 32 -272 4 -365 -51 -171 -181 -327 -336 -402 -194 -95
-381 -95 -579 -1 -109 52 -229 167 -284 275 -196 379 7 834 419 938 94 23 270
15 362 -18z m896 -1596 c179 -179 247 -253 244 -267 -9 -50 -40 -27 -289 222
-228 228 -262 268 -242 287 19 20 59 -14 287 -242z"/>
<path d="M854 2050 c-28 -4 -69 -13 -90 -20 -116 -38 -248 -133 -242 -174 5
-36 42 -31 97 13 62 48 142 87 212 102 65 14 188 7 251 -15 54 -19 78 -13 78
19 0 30 -14 40 -80 58 -70 19 -161 26 -226 17z"/>
<path d="M1390 1716 c-9 -12 -7 -33 9 -98 11 -46 21 -99 23 -118 3 -32 6 -35
33 -35 29 0 30 2 33 46 2 26 -4 77 -13 115 -21 92 -54 126 -85 90z"/>
</g>
</svg>
