<?xml version="1.0" standalone="no"?>
<!DOCTYPE svg PUBLIC "-//W3C//DTD SVG 20010904//EN"
 "http://www.w3.org/TR/2001/REC-SVG-20010904/DTD/svg10.dtd">
<svg version="1.0" xmlns="http://www.w3.org/2000/svg"
 width="147.000000pt" height="165.000000pt" viewBox="0 0 147.000000 165.000000"
 preserveAspectRatio="xMidYMid meet">

<g transform="translate(0.000000,165.000000) scale(0.100000,-0.100000)"
fill="#000000" stroke="none">
<path d="M768 1461 c-83 -27 -138 -62 -201 -130 -158 -171 -171 -423 -31 -607
l24 -31 -26 -24 c-14 -13 -35 -23 -46 -21 -15 3 -72 -47 -220 -195 -110 -109
-206 -210 -214 -225 -28 -53 8 -108 70 -108 26 0 61 31 243 213 172 171 213
216 209 233 -4 14 3 29 19 44 l24 23 73 -36 c143 -71 286 -72 427 -5 241 115
334 428 198 661 -31 52 -133 150 -185 176 -104 53 -256 66 -364 32z m294 -114
c74 -33 151 -110 186 -185 22 -48 26 -71 26 -147 1 -119 -30 -191 -115 -269
-76 -71 -147 -99 -249 -99 -99 0 -172 28 -245 94 -182 167 -160 448 46 580 28
18 72 39 98 46 69 20 184 10 253 -20z"/>
<path d="M830 1321 c-58 -18 -140 -71 -140 -92 0 -4 33 7 73 24 97 42 192 43
286 3 35 -15 65 -25 68 -22 10 10 -53 56 -105 76 -53 20 -135 25 -182 11z"/>
</g>
</svg>
